<svg width="37" height="33" viewBox="0 0 37 33" fill="none" xmlns="http://www.w3.org/2000/svg">
<path d="M18.0973 26.2328C15.2678 26.1005 12.8804 25.1217 10.9351 23.2964C8.9898 21.4711 8.01715 19.2755 8.01715 16.7095C8.01715 14.0641 9.04874 11.8156 11.1119 9.96386C13.1751 8.11211 15.6804 7.18624 18.6278 7.18624C21.4868 7.18624 23.9332 8.05921 25.9669 9.80514C28.0006 11.5511 29.0911 13.6938 29.2385 16.2333L25.5248 15.2413C25.1416 13.8128 24.3163 12.6425 23.049 11.7304C21.7816 10.8183 20.3079 10.3617 18.6278 10.3607C16.6825 10.3607 15.0173 10.9823 13.632 12.2256C12.2467 13.4689 11.554 14.9636 11.554 16.7095C11.554 18.2173 12.0628 19.54 13.0802 20.6775C14.0977 21.815 15.4016 22.5557 16.992 22.8996L18.0973 26.2328ZM20.2194 32.5022C19.9542 32.5551 19.6889 32.5816 19.4236 32.5816H18.6278C16.1815 32.5816 13.8825 32.1647 11.7309 31.3309C9.57928 30.4971 7.70767 29.3664 6.11607 27.939C4.52447 26.5105 3.26474 24.8307 2.3369 22.8996C1.40905 20.9685 0.944538 18.9051 0.943359 16.7095C0.943359 14.5139 1.40787 12.4505 2.3369 10.5194C3.26592 8.58828 4.52564 6.90848 6.11607 5.47999C7.70767 4.0515 9.57928 2.92088 11.7309 2.08812C13.8825 1.25537 16.1815 0.83846 18.6278 0.837402C21.0742 0.837402 23.3732 1.25431 25.5248 2.08812C27.6764 2.92194 29.548 4.05256 31.1396 5.47999C32.7312 6.90848 33.9915 8.58828 34.9205 10.5194C35.8496 12.4505 36.3135 14.5139 36.3123 16.7095V17.4237C36.3123 17.6618 36.2828 17.8999 36.2239 18.138L32.7754 17.1857V16.7095C32.7754 13.1647 31.4049 10.1623 28.6638 7.70208C25.9227 5.24191 22.5774 4.01182 18.6278 4.01182C14.6783 4.01182 11.333 5.24191 8.59189 7.70208C5.8508 10.1623 4.48025 13.1647 4.48025 16.7095C4.48025 20.2543 5.8508 23.2567 8.59189 25.7169C11.333 28.1771 14.6783 29.4072 18.6278 29.4072H19.1584L20.2194 32.5022ZM31.9796 31.788L26.1437 26.5899L24.8174 30.2008C24.67 30.5711 24.39 30.7499 23.9774 30.7373C23.5648 30.7246 23.2847 30.5325 23.1374 30.1611L19.1142 18.138C18.9963 17.847 19.0699 17.5825 19.3352 17.3444C19.6005 17.1063 19.8952 17.0402 20.2194 17.146L33.6154 20.7569C34.0281 20.8891 34.242 21.1405 34.2574 21.5108C34.2727 21.8812 34.0735 22.1325 33.6596 22.2647L29.6364 23.4551L35.4723 28.6929C35.9734 29.1426 36.2239 29.6585 36.2239 30.2405C36.2239 30.8224 35.9734 31.3383 35.4723 31.788C34.9712 32.2377 34.3894 32.4625 33.7268 32.4625C33.0643 32.4625 32.4819 32.2377 31.9796 31.788Z" fill="white"/>
</svg>
