<svg xmlns="http://www.w3.org/2000/svg" fill="none" viewBox="18 14 90 90">
<g filter="url(#filter0_d_1697_47)">
<path d="M28.8383 73.5916C32.765 91.5637 49.2687 97.0635 57.0297 97.5669L82.8928 77.3672L88.6192 53.392L93.2129 22.5576L62.7561 20.6698L36.4525 37.4084C32.2783 41.9811 24.9116 55.6195 28.8383 73.5916Z" fill="url(#paint0_linear_1697_47)"/>
<path d="M76.985 69.2848C67.4138 64.2872 58.2947 67.6038 49.193 71.1419C48.5893 62.5243 65.1188 50.1161 83.0041 44.7495C80.0095 45.2736 76.956 45.5832 74.0362 46.3813C71.0197 47.2058 68.1333 48.505 65.1899 49.5966C65.0145 49.412 64.8391 49.2276 64.6638 49.043C67.2148 46.5308 69.6809 43.9243 72.3401 41.5322C75.1647 38.9913 78.1028 36.563 81.12 34.2537C84.0289 32.0274 87.1023 30.0159 90.0005 27.7446C79.4988 30.0693 70.6913 35.5231 62.3864 42.9519C62.0111 40.2841 61.7003 38.0736 61.3894 35.8629C61.1438 35.8006 60.8979 35.7382 60.6522 35.6759C62.0615 45.1426 55.3113 50.1729 49.8138 56.6004C48.5277 49.7281 49.6259 42.782 45.9692 37.2256C46.3939 41.2998 47.0329 45.61 47.2502 49.9414C47.5772 56.4611 45.4509 62.0929 41.8225 67.6819C34.6901 78.6683 28.3821 90.1886 21.6734 101.452C21.0903 102.431 20.6028 104.176 19.2462 103.986C17.7 103.768 17.8896 101.162 18.2544 100.112C19.4362 96.7124 21.0894 93.4734 22.6075 90.1939C24.9399 85.155 27.2876 80.0822 26.076 74.3292C25.4263 71.244 24.0493 68.3045 23.4773 65.2112C18.4458 37.9954 38.4216 13.9898 66.0555 14.0119C79.1016 14.0224 92.1476 14.0233 105.193 13.9999C106.757 13.9971 108.024 13.9595 107.999 16.1733C107.831 31.2016 108.196 46.251 107.524 61.255C106.651 80.7418 89.2744 97.765 69.8555 99.2597C62.5761 99.82 55.5305 99.253 48.9745 95.8867C40.4948 91.5325 39.3088 82.1975 46.7151 76.1118C55.0003 69.3041 64.6831 67.0853 75.2718 69.0294C75.8394 69.1337 76.4137 69.2006 76.985 69.2848Z" fill="url(#paint1_linear_1697_47)"/>
</g>
<path d="M52.3047 44.3081L82.7662 69.6927M52.3047 69.6927L80.8624 44.3081" stroke="white" stroke-width="5" stroke-linecap="round" stroke-linejoin="round"/>
<defs>
<filter id="filter0_d_1697_47" x="0" y="-0.000488281" width="126" height="126" filterUnits="userSpaceOnUse" color-interpolation-filters="sRGB">
<feFlood flood-opacity="0" result="BackgroundImageFix"/>
<feColorMatrix in="SourceAlpha" type="matrix" values="0 0 0 0 0 0 0 0 0 0 0 0 0 0 0 0 0 0 127 0" result="hardAlpha"/>
<feOffset dy="4"/>
<feGaussianBlur stdDeviation="9"/>
<feComposite in2="hardAlpha" operator="out"/>
<feColorMatrix type="matrix" values="0 0 0 0 0 0 0 0 0 0 0 0 0 0 0 0 0 0 0.25 0"/>
<feBlend mode="normal" in2="BackgroundImageFix" result="effect1_dropShadow_1697_47"/>
<feBlend mode="normal" in="SourceGraphic" in2="effect1_dropShadow_1697_47" result="shape"/>
</filter>
<linearGradient id="paint0_linear_1697_47" x1="62.5" y1="14.4995" x2="62.0197" y2="100.005" gradientUnits="userSpaceOnUse">
<stop stop-color="#97BE0D"/>
<stop offset="0.0851168" stop-color="#97BE0D"/>
<stop offset="1" stop-color="#598618"/>
</linearGradient>
<linearGradient id="paint1_linear_1697_47" x1="59.5" y1="9.49951" x2="62.9997" y2="104" gradientUnits="userSpaceOnUse">
<stop offset="0.0851168" stop-color="#97BE0D"/>
<stop offset="1" stop-color="#598618"/>
</linearGradient>
</defs>
</svg>