<svg width="19" height="19" viewBox="0 0 19 19" fill="none" xmlns="http://www.w3.org/2000/svg">
<path d="M13.8864 11.2673C13.8864 13.9581 12.1926 15.6519 9.5018 15.6519C6.81105 15.6519 5.11719 13.9581 5.11719 11.2673C5.11719 8.37986 8.26041 4.48181 9.22442 3.3543C9.25872 3.31424 9.30128 3.28208 9.34919 3.26003C9.3971 3.23798 9.44922 3.22656 9.50196 3.22656C9.55469 3.22656 9.60681 3.23798 9.65472 3.26003C9.70263 3.28208 9.74519 3.31424 9.7795 3.3543C10.7432 4.48181 13.8864 8.37986 13.8864 11.2673Z" stroke="#294707" stroke-miterlimit="10"/>
<path d="M12.1806 11.5117C12.1806 12.0932 11.9496 12.6508 11.5385 13.0619C11.1273 13.4731 10.5697 13.704 9.98828 13.704" stroke="#294707" stroke-linecap="round" stroke-linejoin="round"/>
<circle cx="9.5" cy="9.5" r="9" stroke="#294707"/>
</svg>
