<svg width="18" height="17" viewBox="0 0 18 17" fill="none" xmlns="http://www.w3.org/2000/svg">
<path d="M12.9784 11.8482L12.9784 11.8482L5.59057 11.7802C5.16612 11.7763 4.74659 11.6889 4.35594 11.5228C3.96529 11.3568 3.61117 11.1154 3.31379 10.8125C3.01642 10.5096 2.78162 10.1511 2.6228 9.7575C2.46397 9.36386 2.38424 8.94279 2.38814 8.51834C2.39205 8.09388 2.47952 7.67435 2.64556 7.2837C2.8116 6.89305 3.05295 6.53893 3.35585 6.24156C3.65875 5.94419 4.01725 5.70938 4.41089 5.55056C4.80453 5.39174 5.2256 5.312 5.65005 5.31591L5.65009 5.31591L13.0381 5.38332C13.8954 5.39124 14.7144 5.7394 15.315 6.3512C15.6124 6.65413 15.8472 7.01267 16.0061 7.40635C16.1649 7.80003 16.2446 8.22113 16.2407 8.64563C16.2328 9.50292 15.8846 10.322 15.2728 10.9226C14.661 11.5232 13.8357 11.8561 12.9784 11.8482Z" stroke="#294707" stroke-width="0.923507"/>
<path d="M9.04614 6.71268V10.4067" stroke="#294707" stroke-width="0.923507" stroke-linecap="round" stroke-linejoin="round"/>
</svg>
